<svg width="20" height="20" viewBox="0 0 20 20" fill="none" xmlns="http://www.w3.org/2000/svg">
<path fill-rule="evenodd" clip-rule="evenodd" d="M5.72071 14.6355C5.3881 14.6355 5.11816 14.3555 5.11816 14.0105V8.29382C5.11816 7.94882 5.3881 7.66882 5.72071 7.66882C6.05331 7.66882 6.32325 7.94882 6.32325 8.29382V14.0105C6.32325 14.3555 6.05331 14.6355 5.72071 14.6355Z" fill="#F20B32"/>
<path fill-rule="evenodd" clip-rule="evenodd" d="M9.47022 14.6346C9.13762 14.6346 8.86768 14.3546 8.86768 14.0096V5.55713C8.86768 5.21213 9.13762 4.93213 9.47022 4.93213C9.80283 4.93213 10.0728 5.21213 10.0728 5.55713V14.0096C10.0728 14.3546 9.80283 14.6346 9.47022 14.6346Z" fill="#F20B32"/>
<path fill-rule="evenodd" clip-rule="evenodd" d="M13.1582 14.6346C12.8256 14.6346 12.5557 14.3546 12.5557 14.0096V11.3146C12.5557 10.9696 12.8256 10.6896 13.1582 10.6896C13.4908 10.6896 13.7608 10.9696 13.7608 11.3146V14.0096C13.7608 14.3546 13.4908 14.6346 13.1582 14.6346Z" fill="#F20B32"/>
<path fill-rule="evenodd" clip-rule="evenodd" d="M5.675 2.08337C3.44799 2.08337 2.00831 3.66421 2.00831 6.11254V13.4709C2.00831 15.9192 3.44799 17.5 5.675 17.5H13.2044C15.4322 17.5 16.8711 15.9192 16.8711 13.4709V6.11254C16.8711 3.66421 15.4322 2.08337 13.2044 2.08337H5.675ZM13.2044 18.75H5.675C2.76109 18.75 0.803223 16.6284 0.803223 13.4709V6.11254C0.803223 2.95504 2.76109 0.833374 5.675 0.833374H13.2044C16.1183 0.833374 18.0762 2.95504 18.0762 6.11254V13.4709C18.0762 16.6284 16.1183 18.75 13.2044 18.75Z" fill="#F20B32"/>
</svg>
