<svg width="33" height="33" viewBox="0 0 33 33" fill="none" xmlns="http://www.w3.org/2000/svg">
<path fill-rule="evenodd" clip-rule="evenodd" d="M22.3862 14.7385C22.4822 14.8343 22.5584 14.9481 22.6104 15.0734C22.6624 15.1987 22.6892 15.333 22.6892 15.4686C22.6892 15.6043 22.6624 15.7386 22.6104 15.8639C22.5584 15.9892 22.4822 16.103 22.3862 16.1988L16.1987 22.3863C16.1029 22.4823 15.9891 22.5585 15.8638 22.6105C15.7385 22.6625 15.6042 22.6892 15.4686 22.6892C15.3329 22.6892 15.1986 22.6625 15.0733 22.6105C14.9481 22.5585 14.8343 22.4823 14.7385 22.3863L11.6447 19.2925C11.5488 19.1966 11.4728 19.0828 11.4209 18.9575C11.369 18.8323 11.3423 18.698 11.3423 18.5624C11.3423 18.4268 11.369 18.2925 11.4209 18.1672C11.4728 18.042 11.5488 17.9281 11.6447 17.8323C11.8384 17.6386 12.101 17.5298 12.3748 17.5298C12.5104 17.5298 12.6447 17.5565 12.77 17.6084C12.8953 17.6603 13.0091 17.7364 13.105 17.8323L15.4686 20.198L20.926 14.7385C21.0218 14.6425 21.1356 14.5663 21.2608 14.5143C21.3861 14.4623 21.5204 14.4355 21.6561 14.4355C21.7917 14.4355 21.926 14.4623 22.0513 14.5143C22.1766 14.5663 22.2904 14.6425 22.3862 14.7385Z" fill="#752FFF"/>
<path d="M8.25 3.09375H6.1875C5.09348 3.09375 4.04427 3.52835 3.27068 4.30193C2.4971 5.07552 2.0625 6.12473 2.0625 7.21875V28.875C2.0625 29.969 2.4971 31.0182 3.27068 31.7918C4.04427 32.5654 5.09348 33 6.1875 33H26.8125C27.9065 33 28.9557 32.5654 29.7293 31.7918C30.5029 31.0182 30.9375 29.969 30.9375 28.875V7.21875C30.9375 6.12473 30.5029 5.07552 29.7293 4.30193C28.9557 3.52835 27.9065 3.09375 26.8125 3.09375H24.75V5.15625H26.8125C27.3595 5.15625 27.8841 5.37355 28.2709 5.76034C28.6577 6.14714 28.875 6.67174 28.875 7.21875V28.875C28.875 29.422 28.6577 29.9466 28.2709 30.3334C27.8841 30.7202 27.3595 30.9375 26.8125 30.9375H6.1875C5.64049 30.9375 5.11589 30.7202 4.72909 30.3334C4.3423 29.9466 4.125 29.422 4.125 28.875V7.21875C4.125 6.67174 4.3423 6.14714 4.72909 5.76034C5.11589 5.37355 5.64049 5.15625 6.1875 5.15625H8.25V3.09375Z" fill="#752FFF"/>
<path d="M19.5938 2.0625C19.8673 2.0625 20.1296 2.17115 20.323 2.36455C20.5164 2.55794 20.625 2.82025 20.625 3.09375V5.15625C20.625 5.42975 20.5164 5.69206 20.323 5.88545C20.1296 6.07885 19.8673 6.1875 19.5938 6.1875H13.4062C13.1327 6.1875 12.8704 6.07885 12.677 5.88545C12.4836 5.69206 12.375 5.42975 12.375 5.15625V3.09375C12.375 2.82025 12.4836 2.55794 12.677 2.36455C12.8704 2.17115 13.1327 2.0625 13.4062 2.0625H19.5938ZM13.4062 0C12.5857 0 11.7988 0.325948 11.2186 0.906138C10.6384 1.48633 10.3125 2.27324 10.3125 3.09375V5.15625C10.3125 5.97676 10.6384 6.76367 11.2186 7.34386C11.7988 7.92405 12.5857 8.25 13.4062 8.25H19.5938C20.4143 8.25 21.2012 7.92405 21.7814 7.34386C22.3616 6.76367 22.6875 5.97676 22.6875 5.15625V3.09375C22.6875 2.27324 22.3616 1.48633 21.7814 0.906138C21.2012 0.325948 20.4143 0 19.5938 0L13.4062 0Z" fill="#752FFF"/>
</svg>
