<svg width="33" height="33" viewBox="0 0 33 33" fill="none" xmlns="http://www.w3.org/2000/svg">
<g clip-path="url(#clip0_2103_3793)">
<circle cx="16.5" cy="16.5" r="15.5" stroke="#752FFF" stroke-width="2"/>
<path d="M17.1924 21.1873C18.5383 21.1873 19.5698 20.83 20.7057 20.3469L20.9999 22.7225C19.9271 23.2477 18.5383 23.5 17.1924 23.5C13.9951 23.5 11.4917 21.5869 10.7347 18.4967H9.19851L8.60917 16.7944H10.503V16.5C10.503 16.1004 10.5241 15.7011 10.5659 15.3437H8.63072L8 13.5356H11.0286C12.0384 11.0129 14.3527 9.5 17.1925 9.5C18.5384 9.5 19.9273 9.75222 21 10.2775L20.7058 12.6531C19.5698 12.1691 18.5384 11.8118 17.1925 11.8118C15.6356 11.8118 14.5629 12.4429 13.9314 13.5356H17.7814L18.4126 15.3437H13.3429C13.2791 15.7011 13.2585 16.079 13.2585 16.5V16.7944H18.1808L18.8124 18.4967H13.5324C14.0364 20.1368 15.2151 21.1873 17.1924 21.1873Z" fill="#752FFF"/>
</g>
<defs>
<clipPath id="clip0_2103_3793">
<rect width="33" height="33" fill="white"/>
</clipPath>
</defs>
</svg>
