<svg width="56" height="56" viewBox="0 0 56 56" fill="none" xmlns="http://www.w3.org/2000/svg">
<rect width="56" height="56" rx="28" fill="#752FFF" fill-opacity="0.2"/>
<path d="M35.1042 21.955C35.2066 21.8506 35.3288 21.7676 35.4636 21.7109C35.5984 21.6543 35.7432 21.6251 35.8895 21.6251C36.0357 21.6251 36.1805 21.6543 36.3153 21.7109C36.4502 21.7676 36.5723 21.8506 36.6747 21.955C37.1037 22.3885 37.1097 23.089 36.6897 23.53L27.8202 34.015C27.7195 34.1256 27.5973 34.2145 27.4611 34.2762C27.3249 34.3379 27.1775 34.3712 27.0279 34.374C26.8784 34.3768 26.7299 34.3491 26.5914 34.2925C26.453 34.236 26.3275 34.1517 26.2227 34.045L20.8257 28.576C20.6176 28.3638 20.501 28.0783 20.501 27.781C20.501 27.4837 20.6176 27.1983 20.8257 26.986C20.9281 26.8816 21.0503 26.7986 21.1851 26.7419C21.3199 26.6853 21.4647 26.6561 21.611 26.6561C21.7572 26.6561 21.902 26.6853 22.0368 26.7419C22.1717 26.7986 22.2938 26.8816 22.3962 26.986L26.9742 31.6255L35.0742 21.988C35.0835 21.9764 35.0936 21.9654 35.1042 21.955Z" fill="#752FFF"/>
</svg>
