<svg width="33" height="34" viewBox="0 0 33 34" fill="none" xmlns="http://www.w3.org/2000/svg">
<g clip-path="url(#clip0_2499_568)">
<path d="M17.5312 12.05C17.5312 11.7765 17.4226 11.5142 17.2292 11.3208C17.0358 11.1274 16.7735 11.0188 16.5 11.0188C16.2265 11.0188 15.9642 11.1274 15.7708 11.3208C15.5774 11.5142 15.4688 11.7765 15.4688 12.05V18.0313H9.28125C9.00775 18.0313 8.74544 18.1399 8.55205 18.3333C8.35865 18.5267 8.25 18.789 8.25 19.0625C8.25 19.3361 8.35865 19.5984 8.55205 19.7918C8.74544 19.9852 9.00775 20.0938 9.28125 20.0938H16.5C16.7735 20.0938 17.0358 19.9852 17.2292 19.7918C17.4226 19.5984 17.5312 19.3361 17.5312 19.0625V12.05Z" fill="#752FFF"/>
<path d="M13.4061 2.5625C13.4061 2.289 13.5147 2.02669 13.7081 1.8333C13.9015 1.6399 14.1638 1.53125 14.4373 1.53125H18.5623C18.8358 1.53125 19.0981 1.6399 19.2915 1.8333C19.4849 2.02669 19.5936 2.289 19.5936 2.5625C19.5936 2.836 19.4849 3.09831 19.2915 3.2917C19.0981 3.4851 18.8358 3.59375 18.5623 3.59375V4.76937C21.3673 5.17362 23.9124 6.37812 25.9543 8.15187C25.9625 8.14284 25.9707 8.1339 25.9791 8.12506L26.7092 7.39494L25.9791 6.66687C25.7854 6.47351 25.6765 6.21113 25.6763 5.93748C25.6761 5.66382 25.7847 5.4013 25.978 5.20766C26.1714 5.01401 26.4338 4.90512 26.7074 4.90493C26.9811 4.90473 27.2436 5.01326 27.4373 5.20662L30.3536 8.12506C30.4521 8.22019 30.5307 8.33398 30.5847 8.4598C30.6388 8.58562 30.6672 8.72094 30.6684 8.85787C30.6696 8.9948 30.6435 9.13059 30.5917 9.25733C30.5398 9.38406 30.4632 9.4992 30.3664 9.59603C30.2696 9.69286 30.1544 9.76943 30.0277 9.82128C29.901 9.87314 29.7652 9.89923 29.6283 9.89804C29.4913 9.89685 29.356 9.8684 29.2302 9.81435C29.1044 9.76031 28.9906 9.68174 28.8954 9.58325L28.1674 8.85312L27.4373 9.58325C27.4285 9.59165 27.4195 9.5999 27.4104 9.608C29.5104 12.0322 30.7435 15.0866 30.9149 18.2893C31.0864 21.4919 30.1865 24.6605 28.3574 27.2951C26.5282 29.9296 23.8739 31.88 20.8132 32.8386C17.7526 33.7973 14.4599 33.7094 11.4547 32.5891C8.44945 31.4687 5.90285 29.3795 4.21672 26.6512C2.53059 23.923 1.80092 20.7109 2.14285 17.5219C2.48478 14.3329 3.87884 11.3486 6.10506 9.03979C8.33128 6.731 11.2629 5.22923 14.4373 4.77144V3.59375C14.1638 3.59375 13.9015 3.4851 13.7081 3.2917C13.5147 3.09831 13.4061 2.836 13.4061 2.5625ZM16.4998 6.6875C14.8747 6.68763 13.2655 7.00786 11.7642 7.62988C10.2628 8.25191 8.89871 9.16356 7.74968 10.3128C5.42911 12.6337 4.12558 15.7815 4.12586 19.0635C4.12613 22.3456 5.43018 25.4931 7.75114 27.8137C10.0721 30.1342 13.2198 31.4378 16.5019 31.4375C19.7839 31.4372 22.9315 30.1332 25.252 27.8122C27.5726 25.4913 28.8761 22.3435 28.8759 19.0615C28.8756 15.7794 27.5715 12.6319 25.2506 10.3113C22.9296 7.99075 19.7819 6.68723 16.4998 6.6875Z" fill="#752FFF"/>
</g>
<defs>
<clipPath id="clip0_2499_568">
<rect width="33" height="33" fill="white" transform="translate(0 0.5)"/>
</clipPath>
</defs>
</svg>
